<svg xmlns="http://www.w3.org/2000/svg" viewBox="0 0 884 864">
    <g fill="#45aaf2">
      <path d="
      M879 145 L874 139 L867 134 L854 130 L832 130 L820 133 L802 140 L786 148 L764 162 L759 164
       L679 215 L663 224 L641 239 L636 241 L596 267 L580 276 L492 254 L488 252 L448 242 L437 238
       L422 235 L407 230 L347 215 L343 213 L303 203 L295 200 L282 198 L281 199 L274 199 L266 202
       L234 219 L230 223 L228 228 L230 236 L241 246 L286 277 L429 380 L401 400 L315 457 L311 457
       L290 451 L286 451 L282 449 L278 449 L274 447 L216 433 L212 431 L208 431 L203 429 L189 429
       L160 444 L155 450 L154 453 L155 459 L163 468 L217 505 L256 530 L259 533 L264 543 L269 564
       L288 627 L294 633 L302 634 L309 631 L321 623 L330 613 L336 598 L336 595 L350 548 L353 542
       L358 537 L528 453 L530 456 L532 477 L536 493 L538 509 L545 540 L545 545 L549 561 L549 566
       L552 577 L552 582 L557 607 L560 614 L564 618 L571 621 L580 619 L591 612 L603 600 L610 590
       L621 565 L639 495 L639 491 L641 487 L641 483 L647 462 L649 449 L660 407 L664 386 L668 375
       L790 284 L812 266 L838 241 L852 225 L866 206 L878 184 L883 164 L882 153 Z"/>
      <path d="
      M145 87 L128 102 L103 127 L86 147 L62 181 L49 203 L32 239 L21 269 L12 303 L9 324
       L8 325 L8 331 L7 332 L6 348 L5 349 L4 383 L3 384 L5 431 L6 432 L6 439
       L7 440 L7 446 L8 447 L12 474 L19 500 L34 541 L50 574 L70 607 L92 636 L105 651
       L128 674 L144 688 L169 707 L204 729 L241 747 L270 758 L273 758 L280 761 L306 768 L331 773
       L344 774 L345 775 L364 776 L365 777 L389 777 L390 778 L392 777 L415 777 L416 776 L444 774
       L484 766 L511 757 L514 757 L557 739 L559 737 L561 737 L581 726 L598 715 L605 709 L704 823
       L733 852 L748 859 L766 860 L777 857 L791 848 L803 834 L808 822 L809 808 L808 807 L808 802
       L803 790 L797 781 L784 766 L676 653 L699 625 L712 607 L733 573 L750 538 L764 499 L774 459
       L776 441 L777 440 L777 433 L778 432 L778 421 L779 420 L780 379 L779 378 L779 362 L778 361
       L775 326 L710 370 L707 371 L704 374 L703 378 L704 381 L703 411 L702 412 L700 435 L693 468
       L685 494 L676 517 L661 547 L646 571 L623 600 L602 621 L577 641 L547 660 L519 674 L494 684
       L474 690 L442 697 L421 699 L420 700 L408 700 L407 701 L377 701 L376 700 L363 700 L362 699
       L355 699 L354 698 L347 698 L346 697 L329 695 L298 687 L265 675 L233 659 L212 646 L181 622
       L158 600 L140 579 L125 558 L106 525 L96 502 L86 471 L80 443 L78 421 L77 420 L77 407
       L76 406 L76 366 L77 365 L78 346 L85 309 L91 289 L101 263 L119 229 L140 199 L156 180
       L179 157 L193 145 L216 128 L236 116 L272 99 L295 91 L327 83 L344 81 L345 80 L363 79
       L364 78 L407 78 L408 79 L420 79 L421 80 L437 81 L463 86 L485 93 L488 93 L512 102
       L537 114 L559 127 L580 142 L607 165 L629 188 L636 197 L644 204 L706 163 L687 139 L653 104
       L638 91 L606 67 L580 51 L536 30 L502 18 L461 8 L449 7 L442 5 L426 4 L425 3
       L368 2 L367 3 L343 4 L342 5 L335 5 L334 6 L328 6 L307 10 L276 18 L246 28
       L216 41 L179 62 Z"/>
    </g>
  </svg>
  